<svg id="Layer_1" data-name="Layer 1" xmlns="http://www.w3.org/2000/svg" viewBox="0 0 200 200"><polygon points="68.22 38.51 63.51 44.15 63.51 153.45 68.22 159.3 68.22 38.51"/><polygon points="131.99 38.51 136.5 44.15 136.5 153.45 131.99 159.3 131.99 38.51"/><path d="M63.51,44.15s0-.2,0-.54c-.06-2.69.36-14.57,11-14.57,12,0,0,9.47,0,9.47Z"/><path d="M136.49,44.15s1-15.11-11-15.11,0,9.47,0,9.47Z"/><path d="M63.51,153.45s-1,17.51,11,17.51,0-11,0-11Z"/><path d="M136.49,153.45s1,17.51-11,17.51,0-11,0-11Z"/><polygon points="74.51 170.96 125.47 170.96 131.99 159.3 113.18 159.3 113.22 165.74 74.45 165.92 74.51 170.96"/><polygon points="68.22 153.45 132 153.45 132 159.28 90.41 159.28 68.22 159.28 68.22 153.45"/><path d="M92.72,164.21c-2.27,0-2.27-4.91,0-4.91-3.57,0-24.2-.26-24.52,0v4.91Z"/><path d="M107.72,164.22c2.27,0,2.27-5,0-5,3.57,0,24.14-.15,24.46.11v4.9Z"/><polygon points="74.51 164.18 119.2 164.22 119.19 167.24 74.51 167.24 74.51 164.18"/><polygon points="74.51 29.06 125.47 29.06 125.47 33.06 74.46 33.1 74.51 29.06"/><rect x="68.2" y="38.51" width="63.78" height="5.64"/><path d="M113.18,33.06a3,3,0,0,0,0,3.18H109.6V33Z"/><path d="M119.08,33.06a3,3,0,0,1,0,3.18c1,0,4.35.11,4.35.11V32.82Z"/><rect x="109.6" y="36.24" width="16.84" height="2.26"/><path d="M93.24,35.48a2.67,2.67,0,0,0,0,3H89.66v-3Z"/><path d="M107.21,35.49a2.65,2.65,0,0,1,0,3h3.58v-3Z"/><polygon points="90.41 35.5 110.15 35.5 110.15 32.57 73.99 32.57 73.99 38.95 90.41 38.95 90.41 35.5"/><rect x="111.52" y="31.95" width="10.45" height="5.51"/></svg>