<svg id="Layer_1" data-name="Layer 1" xmlns="http://www.w3.org/2000/svg" viewBox="0 0 200 200"><defs><style>.cls-1{fill:#fff;}.cls-2,.cls-4{fill:none;}.cls-2,.cls-3,.cls-4{stroke:#000;stroke-width:4.1px;}.cls-2,.cls-3{stroke-miterlimit:10;}.cls-3{fill:#fdfdfd;}.cls-4{stroke-linecap:round;stroke-linejoin:round;}</style></defs><rect class="cls-1" x="50.23" y="67.38" width="92.4" height="13.23"/><polygon points="49 76.92 48.63 142.54 53.34 151.14 61.42 152 147.52 152.24 147.52 80.61 53.34 80.61 49 76.92"/><path class="cls-2" d="M142.63,80.61V66.28H56.2a7.43,7.43,0,0,0-7.55,6.78,7.16,7.16,0,0,0,7.15,7.55h91.72v71.63H58.33a9.69,9.69,0,0,1-9.69-9.7V73.44"/><path class="cls-3" d="M128.13,128.83a12.41,12.41,0,1,1,0-24.81h23.23v24.81Z"/><circle cx="129.53" cy="116.42" r="5.42"/><rect class="cls-1" x="87.26" y="64.84" width="45.01" height="9.26" transform="translate(-11.07 21.8) rotate(-10.8)"/><polygon class="cls-1" points="117.24 63.29 72.74 78.09 67.45 69.39 110.86 49.42 117.24 63.29"/><polyline class="cls-4" points="117.82 60.34 110.83 47.76 59.12 72.92 131.1 59.29 133.54 74.32"/></svg>